# File created by Blade
# Date/Time:  Thu Sep 25 21:01:51 2014
# Frame Rate: 120.000 fps
#------------------------------------------------------
:FULLY-SPECIFIED
:DEGREES
2401
root 4.254246 6.097871 -6.610580 32.832425 5.797504 -31.149921
Spine -19.091008 5.579373 42.210771
Head -13.346834 5.373863 8.910095
LeftShoulder -6.058780 16.566279 14.158628
LeftArm 36.931288 51.042919 -56.051783
LeftForeArm 20.656347 0.000000 40.025660
LeftHand -27.545332 0.000000 10.168318
LeftHandThumb1 -26.253704 0.000000 33.147579
RightShoulder -29.133640 10.514029 -26.017529
RightArm -72.955272 58.805179 13.700483
RightForeArm 40.617127 0.000000 114.245103
RightHand -3.143842 -0.000000 15.150383
RightHandThumb1 -24.326973 -0.000000 -32.862282
LeftUpLeg -110.314559 -19.180968 -40.961044
LeftLeg 134.313345 -0.000000 -0.000000
LeftFoot 42.230320 8.319335 -21.676629
LeftToeBase 9.540475 -0.000000 -0.000000
RightUpLeg -25.176152 47.311307 -61.209081
RightLeg 135.603353 -0.000000 -0.000000
RightFoot 39.757196 5.135650 -14.134654
RightToeBase 20.583409 -0.000000 -0.000000
2402
root 4.252725 6.097427 -6.612038 32.814473 5.781281 -31.155316
Spine -19.072166 5.580282 42.207433
Head -13.356680 5.402036 8.934817
LeftShoulder -6.023050 16.510723 14.175878
LeftArm 37.022359 51.093506 -55.935230
LeftForeArm 20.572562 -0.000000 39.941261
LeftHand -27.458670 -0.000000 10.090458
LeftHandThumb1 -26.253704 0.000000 33.147579
RightShoulder -29.144953 10.525149 -26.008021
RightArm -73.005188 58.805236 13.653747
RightForeArm 40.560688 -0.000000 114.239948
RightHand -3.187985 0.000000 15.062130
RightHandThumb1 -24.326973 -0.000000 -32.862282
LeftUpLeg -110.318431 -19.172693 -40.980114
LeftLeg 134.337754 -0.000000 -0.000000
LeftFoot 42.159261 8.379593 -21.688005
LeftToeBase 9.488695 -0.000000 -0.000000
RightUpLeg -25.157292 47.305014 -61.181426
RightLeg 135.614441 -0.000000 -0.000000
RightFoot 39.714742 5.219174 -14.175161
RightToeBase 20.306006 -0.000000 -0.000000
2403
root 4.254185 6.096403 -6.614672 32.799577 5.757665 -31.151725
Spine -19.046369 5.567892 42.210507
Head -13.375093 5.441148 8.935179
LeftShoulder -5.994033 16.463782 14.179280
LeftArm 37.122181 51.148270 -55.811751
LeftForeArm 20.569604 -0.000000 39.868754
LeftHand -27.401945 0.000000 9.981815
LeftHandThumb1 -26.253704 0.000000 33.147579
RightShoulder -29.127976 10.549926 -26.003750
RightArm -73.080205 58.801303 13.582649
RightForeArm 40.539355 0.000000 114.234271
RightHand -3.176649 0.000000 15.042196
RightHandThumb1 -24.326973 -0.000000 -32.862282
LeftUpLeg -110.310011 -19.161202 -40.994796
LeftLeg 134.330297 -0.000000 -0.000000
LeftFoot 42.165677 8.419759 -21.743938
LeftToeBase 9.422972 -0.000000 -0.000000
RightUpLeg -25.166394 47.281573 -61.189289
RightLeg 135.577127 -0.000000 -0.000000
RightFoot 39.738992 5.066247 -14.032931
RightToeBase 20.570806 -0.000000 -0.000000
2404
root 4.253416 6.094953 -6.616759 32.782993 5.729670 -31.157223
Spine -19.017694 5.556512 42.203673
Head -13.388094 5.487525 8.971957
LeftShoulder -5.965911 16.420794 14.203500
LeftArm 37.228702 51.216409 -55.675689
LeftForeArm 20.562539 -0.000000 39.825429
LeftHand -27.393571 -0.000000 9.935322
LeftHandThumb1 -26.253704 0.000000 33.147579
RightShoulder -29.119722 10.553512 -25.971787
RightArm -73.094793 58.814990 13.561905
RightForeArm 40.510925 0.000000 114.230691
RightHand -3.139080 -0.000000 15.026135
RightHandThumb1 -24.326973 -0.000000 -32.862282
LeftUpLeg -110.323351 -19.139973 -40.999876
LeftLeg 134.333337 -0.000000 -0.000000
LeftFoot 42.189541 8.422826 -21.754861
LeftToeBase 9.390661 -0.000000 -0.000000
RightUpLeg -25.176563 47.267953 -61.190280
RightLeg 135.565496 -0.000000 -0.000000
RightFoot 39.782742 5.009192 -14.046545
RightToeBase 20.806983 -0.000000 -0.000000
2405
root 4.250125 6.093472 -6.617732 32.749817 5.720291 -31.175991
Spine -18.980886 5.521041 42.219907
Head -13.404684 5.539383 9.005264
LeftShoulder -5.952809 16.390128 14.219806
LeftArm 37.343501 51.254107 -55.558730
LeftForeArm 20.676827 -0.000000 39.687691
LeftHand -28.184513 0.000000 11.211742
LeftHandThumb1 -26.253704 0.000000 33.147579
RightShoulder -29.103747 10.565281 -25.944527
RightArm -73.110930 58.828566 13.538251
RightForeArm 40.488626 -0.000000 114.225785
RightHand -3.122696 -0.000000 15.057096
RightHandThumb1 -24.326973 -0.000000 -32.862282
LeftUpLeg -110.339001 -19.105925 -40.969085
LeftLeg 134.330656 -0.000000 -0.000000
LeftFoot 42.254570 8.298735 -21.666598
LeftToeBase 9.454597 -0.000000 -0.000000
RightUpLeg -25.143239 47.298963 -61.146946
RightLeg 135.597693 -0.000000 -0.000000
RightFoot 39.742742 5.176884 -14.189044
RightToeBase 20.257178 -0.000000 -0.000000
2406
root 4.250758 6.092992 -6.620966 32.746733 5.691257 -31.186054
Spine -18.956455 5.519191 42.226342
Head -13.415249 5.603880 9.025454
LeftShoulder -5.924183 16.348432 14.244022
LeftArm 37.423329 51.324801 -55.467175
LeftForeArm 20.691535 -0.000000 39.627436
LeftHand -28.388640 -0.000000 11.513824
LeftHandThumb1 -26.253704 0.000000 33.147579
RightShoulder -29.090723 10.579771 -25.929236
RightArm -73.110074 58.821257 13.521175
RightForeArm 40.479568 -0.000000 114.221577
RightHand -3.112229 0.000000 15.104410
RightHandThumb1 -24.326973 -0.000000 -32.862282
LeftUpLeg -110.352500 -19.106765 -40.986729
LeftLeg 134.341698 -0.000000 -0.000000
LeftFoot 42.200521 8.422016 -21.740452
LeftToeBase 9.415905 -0.000000 -0.000000
RightUpLeg -25.199413 47.284588 -61.190336
RightLeg 135.570598 -0.000000 -0.000000
RightFoot 39.809152 4.987389 -14.033222
RightToeBase 20.590266 -0.000000 -0.000000
2407
root 4.247471 6.092459 -6.622229 32.718963 5.681193 -31.201922
Spine -18.910249 5.496152 42.241717
Head -13.464140 5.653295 9.045511
LeftShoulder -5.922100 16.350090 14.254674
LeftArm 37.609892 51.384036 -55.260480
LeftForeArm 20.594356 0.000000 39.610357
LeftHand -28.161568 -0.000000 11.229984
LeftHandThumb1 -26.253704 0.000000 33.147579
RightShoulder -29.100213 10.612474 -25.920190
RightArm -73.099794 58.796979 13.515540
RightForeArm 40.504434 -0.000000 114.222193
RightHand -3.106216 -0.000000 15.173752
RightHandThumb1 -24.326973 -0.000000 -32.862282
LeftUpLeg -110.356516 -19.080196 -40.975495
LeftLeg 134.360640 -0.000000 -0.000000
LeftFoot 42.172936 8.395743 -21.734234
LeftToeBase 9.385960 -0.000000 -0.000000
RightUpLeg -25.181596 47.314753 -61.165573
RightLeg 135.630541 -0.000000 -0.000000
RightFoot 39.747717 5.161049 -14.235343
RightToeBase 19.911022 -0.000000 -0.000000
